<svg width="16" height="16" viewBox="0 0 16 16" fill="none" xmlns="http://www.w3.org/2000/svg">
<g filter="url(#filter0_d_646_51)">
<path fill-rule="evenodd" clip-rule="evenodd" d="M13.3536 3.35355C13.5488 3.15829 13.5488 2.84171 13.3536 2.64645C13.1583 2.45118 12.8417 2.45118 12.6464 2.64645L8 7.29289L3.35355 2.64645C3.15829 2.45118 2.84171 2.45118 2.64645 2.64645C2.45118 2.84171 2.45118 3.15829 2.64645 3.35355L7.29289 8L2.64645 12.6464C2.45118 12.8417 2.45118 13.1583 2.64645 13.3536C2.84171 13.5488 3.15829 13.5488 3.35355 13.3536L8 8.70711L12.6464 13.3536C12.8417 13.5488 13.1583 13.5488 13.3536 13.3536C13.5488 13.1583 13.5488 12.8417 13.3536 12.6464L8.70711 8L13.3536 3.35355Z" fill="white"/>
</g>
<defs>
<filter id="filter0_d_646_51" x="0.5" y="0.5" width="15" height="15" filterUnits="userSpaceOnUse" color-interpolation-filters="sRGB">
<feFlood flood-opacity="0" result="BackgroundImageFix"/>
<feColorMatrix in="SourceAlpha" type="matrix" values="0 0 0 0 0 0 0 0 0 0 0 0 0 0 0 0 0 0 127 0" result="hardAlpha"/>
<feOffset/>
<feGaussianBlur stdDeviation="1"/>
<feComposite in2="hardAlpha" operator="out"/>
<feColorMatrix type="matrix" values="0 0 0 0 0 0 0 0 0 0 0 0 0 0 0 0 0 0 0.5 0"/>
<feBlend mode="normal" in2="BackgroundImageFix" result="effect1_dropShadow_646_51"/>
<feBlend mode="normal" in="SourceGraphic" in2="effect1_dropShadow_646_51" result="shape"/>
</filter>
</defs>
</svg>
