<svg width="28" height="24" viewBox="0 0 28 24" fill="none" xmlns="http://www.w3.org/2000/svg">
<rect width="28" height="24" fill="white"/>
<path d="M2.33337 4.5C2.33337 3.83696 2.57921 3.20107 3.01679 2.73223C3.45438 2.26339 4.04787 2 4.66671 2H23.3334C23.9522 2 24.5457 2.26339 24.9833 2.73223C25.4209 3.20107 25.6667 3.83696 25.6667 4.5V19.5C25.6667 20.163 25.4209 20.7989 24.9833 21.2678C24.5457 21.7366 23.9522 22 23.3334 22H4.66671C4.04787 22 3.45438 21.7366 3.01679 21.2678C2.57921 20.7989 2.33337 20.163 2.33337 19.5V4.5ZM6.41671 4L14 11.5887L21.5834 4H14H6.41671ZM23.3334 5.5L14.7689 14.1912C14.5561 14.391 14.2829 14.5011 14 14.5011C13.7172 14.5011 13.444 14.391 13.2312 14.1912L4.66671 5.5V20H23.3334V5.5Z" fill="#FCA91B"/>
</svg>
